<?xml version="1.0" encoding="utf-8"?>
<!-- Generator: Adobe Illustrator 24.0.0, SVG Export Plug-In . SVG Version: 6.00 Build 0)  -->
<svg version="1.1" id="Layer_1" xmlns="http://www.w3.org/2000/svg" xmlns:xlink="http://www.w3.org/1999/xlink" x="0px" y="0px"
	 viewBox="0 0 171.29 18.58" style="enable-background:new 0 0 171.29 18.58;" xml:space="preserve">
<style type="text/css">
	.st0{fill:#FFFFFF;}
</style>
<path class="st0" d="M0,15.05h2.01V6.23C2.3,5.77,2.7,5.48,3.05,5.48c0.65,0,0.93,0.33,0.93,1.29v8.29h2.01V6.53
	c0-0.09,0-0.19-0.01-0.28c0.3-0.47,0.7-0.76,1.06-0.76c0.65,0,0.93,0.33,0.93,1.29v8.29h2.01V6.69c0-1.78-0.73-2.68-1.99-2.68
	c-0.8,0-1.61,0.29-2.23,1.24c-0.3-0.83-0.91-1.24-1.76-1.24c-0.81,0-1.64,0.3-2.27,1.3V5.31L1.56,4.14H0V15.05z M13.56,15.16
	c0.93,0,1.69-0.44,2.12-1.05l0.14,0.94h1.49V6.87c0-1.93-0.63-2.86-2.8-2.86c-1.67,0-2.85,0.88-2.85,2.5c0,0.34,0.05,0.67,0.14,1.08
	h1.53V7.11c0-1.25,0.54-1.64,1.11-1.64c0.85,0,0.92,0.65,0.92,1.5v1.44c-0.39,0.14-0.96,0.37-1.35,0.57
	c-1.67,0.83-2.56,1.77-2.56,3.56C11.45,14.03,12.21,15.16,13.56,15.16z M14.45,13.62c-0.73,0-1.04-0.55-1.04-1.39
	c0-1.07,0.59-1.75,1.16-2.1c0.3-0.19,0.58-0.3,0.79-0.38v3.42C15.14,13.42,14.79,13.62,14.45,13.62z M19.38,15.05h2.01V6.23
	c0.3-0.46,0.72-0.75,1.13-0.75c0.57,0,0.87,0.33,0.87,1.29v8.29h2.01V6.69c0-1.78-0.73-2.68-2-2.68c-0.8,0-1.66,0.3-2.29,1.3V5.31
	l-0.18-1.17h-1.55V15.05z M27.48,12.5c0,1.79,0.73,2.68,2,2.68c0.8,0,1.62-0.3,2.25-1.29h0.01l0.2,1.16h1.53V4.14h-2.01v8.85
	c-0.3,0.41-0.7,0.64-1.1,0.64c-0.57,0-0.87-0.32-0.87-1.28V4.14h-2.01V12.5z M35.83,15.05h1.98V5.57h1.51V4.14h-1.51V3.35
	c0-0.95,0.46-1.26,0.98-1.26c0.27,0,0.53,0.03,0.74,0.09V0.77C39.17,0.59,38.59,0.5,38.2,0.5c-1.33,0-2.37,0.48-2.37,2.85v0.79
	h-0.94v1.43h0.94V15.05z M41.95,15.16c0.93,0,1.69-0.44,2.12-1.05l0.14,0.94h1.49V6.87c0-1.93-0.63-2.86-2.8-2.86
	c-1.67,0-2.85,0.88-2.85,2.5c0,0.34,0.05,0.67,0.14,1.08h1.53V7.11c0-1.25,0.54-1.64,1.11-1.64c0.85,0,0.92,0.65,0.92,1.5v1.44
	c-0.39,0.14-0.96,0.37-1.35,0.57c-1.67,0.83-2.56,1.77-2.56,3.56C39.85,14.03,40.61,15.16,41.95,15.16z M42.85,13.62
	c-0.73,0-1.04-0.55-1.04-1.39c0-1.07,0.59-1.75,1.16-2.1c0.3-0.19,0.58-0.3,0.79-0.38v3.42C43.54,13.42,43.19,13.62,42.85,13.62z
	 M50.33,15.17c1.81,0,2.73-0.9,2.73-2.97v-0.42h-1.73v0.34c0,1.15-0.38,1.51-0.78,1.51c-0.79,0-1.02-0.72-1.02-2.63V7.9
	c0-1.88,0.32-2.43,0.97-2.43c0.59,0,0.83,0.66,0.83,1.75v0.37h1.6c0.09-0.34,0.13-0.68,0.13-1.18c0-1.63-1.02-2.4-2.5-2.4
	c-1.1,0-3.07,0.34-3.07,4.51v2.06C47.5,13.67,48.49,15.17,50.33,15.17z M54.91,12.34c0,2.37,1.04,2.84,2.16,2.84
	c0.56,0,1.21-0.15,1.66-0.71v-1.11c-0.27,0.17-0.56,0.27-0.95,0.27c-0.47,0-0.86-0.17-0.86-1.12V5.57h1.75V4.14h-1.75V1.31h-1.43
	l-0.41,2.83h-1.02v1.43h0.85V12.34z M60.05,12.5c0,1.79,0.73,2.68,2,2.68c0.8,0,1.62-0.3,2.25-1.29h0.01l0.2,1.16h1.53V4.14h-2.01
	v8.85c-0.3,0.41-0.7,0.64-1.1,0.64c-0.57,0-0.87-0.32-0.87-1.28V4.14h-2.01V12.5z M68.13,15.05h2.01V6.07
	c0.18-0.36,0.46-0.59,0.77-0.59c0.29,0,0.53,0.25,0.53,1.13v1.02h1.4c0.15-0.44,0.27-1.12,0.27-1.48c0-1.41-0.54-2.13-1.69-2.13
	c-0.6,0-1.21,0.41-1.65,1.24L69.6,4.14h-1.47V15.05z M75.47,2.58c0.78,0,1.22-0.48,1.22-1.31c0-0.88-0.43-1.27-1.21-1.27
	c-0.75,0-1.21,0.33-1.21,1.27C74.27,2.12,74.73,2.58,75.47,2.58z M74.42,15.05h2.01V4.14h-2.01V15.05z M78.51,15.05h2.01V6.23
	c0.3-0.46,0.72-0.75,1.13-0.75c0.57,0,0.87,0.33,0.87,1.29v8.29h2.01V6.69c0-1.78-0.73-2.68-2-2.68c-0.8,0-1.66,0.3-2.29,1.3V5.31
	l-0.18-1.17h-1.55V15.05z M86.82,15.8c-0.07,0.25-0.1,0.48-0.1,0.63c0,1.72,1.17,2.15,2.62,2.15c2.13,0,3.04-1.54,3.04-3.96V4.14
	h-1.56l-0.18,1.08c-0.29-0.58-0.83-1.19-1.89-1.19c-0.79,0-2.39,0.21-2.39,3.75v2.87c0,3.71,1.6,3.95,2.34,3.95
	c0.84,0,1.39-0.39,1.75-0.85v1.72c0,1.33-0.54,1.62-1.14,1.62c-0.72,0-1.07-0.36-1.07-1.29H86.82z M89.38,13.04
	c-0.58,0-1.02-0.37-1.02-1.99V7.45c0-1.63,0.42-1.97,1.01-1.97c0.48,0,0.81,0.37,1.01,0.8v5.97C90.21,12.65,89.91,13.04,89.38,13.04
	z M97.55,17.16l-0.01,1.22c0.37,0.13,0.72,0.2,1.05,0.2c1.69,0,2.49-1.03,2.89-3.12l2.3-11.32h-1.97l-0.93,6.04l-0.23,2.08h-0.07
	l-0.33-2.08l-1.15-6.04h-2.03l2.58,10.98C99.59,16.67,98.76,17.33,97.55,17.16z M107.83,15.17c1.26,0,3-0.56,3-4.8V8.65
	c0-4.29-1.68-4.64-2.99-4.64c-1.36,0-3.04,0.4-3.04,4.64v1.71C104.79,14.68,106.43,15.17,107.83,15.17z M107.84,13.63
	c-0.76,0-1.04-0.67-1.04-2.72V8.22c0-2.05,0.29-2.74,1.04-2.74c0.72,0,0.98,0.7,0.98,2.74v2.69
	C108.82,12.95,108.57,13.63,107.84,13.63z M112.62,12.5c0,1.79,0.73,2.68,2,2.68c0.8,0,1.62-0.3,2.25-1.29h0.01l0.2,1.16h1.53V4.14
	h-2.01v8.85c-0.3,0.41-0.7,0.64-1.1,0.64c-0.57,0-0.87-0.32-0.87-1.28V4.14h-2.01V12.5z M120.7,15.05h2.01V6.07
	c0.18-0.36,0.46-0.59,0.77-0.59c0.29,0,0.53,0.25,0.53,1.13v1.02h1.4c0.15-0.44,0.27-1.12,0.27-1.48c0-1.41-0.54-2.13-1.69-2.13
	c-0.6,0-1.21,0.41-1.65,1.24l-0.17-1.11h-1.47V15.05z M131.5,2.58c0.79,0,1.22-0.48,1.22-1.31c0-0.88-0.43-1.27-1.21-1.27
	c-0.75,0-1.21,0.33-1.21,1.27C130.3,2.12,130.76,2.58,131.5,2.58z M130.45,15.05h2.01V4.14h-2.01V15.05z M134.55,15.05h2.01V6.23
	c0.29-0.46,0.69-0.75,1.05-0.75c0.65,0,0.93,0.33,0.93,1.29v8.29h2.01V6.53c0-0.09,0-0.19-0.01-0.28c0.3-0.47,0.7-0.76,1.06-0.76
	c0.65,0,0.93,0.33,0.93,1.29v8.29h2.01V6.69c0-1.78-0.73-2.68-1.99-2.68c-0.8,0-1.61,0.29-2.23,1.24c-0.3-0.83-0.91-1.24-1.76-1.24
	c-0.81,0-1.64,0.3-2.27,1.3V5.31l-0.17-1.17h-1.56V15.05z M148.11,15.16c0.93,0,1.69-0.44,2.12-1.05l0.14,0.94h1.49V6.87
	c0-1.93-0.62-2.86-2.8-2.86c-1.67,0-2.85,0.88-2.85,2.5c0,0.34,0.05,0.67,0.14,1.08h1.53V7.11c0-1.25,0.54-1.64,1.12-1.64
	c0.85,0,0.91,0.65,0.91,1.5v1.44c-0.39,0.14-0.96,0.37-1.35,0.57c-1.67,0.83-2.56,1.77-2.56,3.56
	C146,14.03,146.76,15.16,148.11,15.16z M149,13.62c-0.73,0-1.04-0.55-1.04-1.39c0-1.07,0.59-1.75,1.16-2.1
	c0.3-0.19,0.58-0.3,0.79-0.38v3.42C149.69,13.42,149.34,13.62,149,13.62z M154.15,15.8c-0.07,0.25-0.1,0.48-0.1,0.63
	c0,1.72,1.17,2.15,2.62,2.15c2.13,0,3.05-1.54,3.05-3.96V4.14h-1.56l-0.18,1.08c-0.29-0.58-0.83-1.19-1.89-1.19
	c-0.79,0-2.39,0.21-2.39,3.75v2.87c0,3.71,1.61,3.95,2.34,3.95c0.84,0,1.39-0.39,1.75-0.85v1.72c0,1.33-0.54,1.62-1.14,1.62
	c-0.72,0-1.07-0.36-1.07-1.29H154.15z M156.71,13.04c-0.58,0-1.01-0.37-1.01-1.99V7.45c0-1.63,0.42-1.97,1.01-1.97
	c0.48,0,0.81,0.37,1.01,0.8v5.97C157.54,12.65,157.24,13.04,156.71,13.04z M164.44,15.17c1.88,0,2.89-0.9,2.89-2.97v-0.42h-1.68
	v0.34c0,1.15-0.46,1.51-0.96,1.51c-0.91,0-1.17-0.64-1.17-2.55V9.97h3.62c0.16-0.7,0.26-1.67,0.26-2.56c0-2.63-1.3-3.4-2.74-3.4
	c-1.16,0-3.14,0.34-3.14,4.51v2.06C161.53,13.83,162.56,15.17,164.44,15.17z M163.54,8.62V7.96c0-1.88,0.34-2.48,1.04-2.48
	c0.67,0,1.01,0.59,1.01,2.03c0,0.28-0.01,0.89-0.03,1.12H163.54z M168.81,13.63c0,1,0.48,1.53,1.23,1.53c0.79,0,1.25-0.56,1.25-1.53
	c0-1.05-0.46-1.57-1.24-1.57C169.28,12.06,168.81,12.52,168.81,13.63z"/>
</svg>
